<svg version="1.1" id="Layer_1" xmlns="http://www.w3.org/2000/svg" xmlns:xlink="http://www.w3.org/1999/xlink" x="0px" y="0px"
	 width="100%" viewBox="0 0 2000 2000" enable-background="new 0 0 2000 2000" xml:space="preserve">
<path fill="#FFFFFF" opacity="1.000000" stroke="none" 
	d="
M1120.000000,2001.000000 
	C746.666687,2001.000000 373.833344,2001.000000 1.000000,2001.000000 
	C1.000000,1334.333374 1.000000,667.666687 1.000000,1.000000 
	C667.666687,1.000000 1334.333374,1.000000 2001.000000,1.000000 
	C2001.000000,667.666687 2001.000000,1334.333374 2001.000000,2001.000000 
	C1707.500000,2001.000000 1414.000000,2001.000000 1120.000000,2001.000000 
M1430.195679,240.335510 
	C1365.837891,220.316238 1299.925049,209.535721 1232.612061,207.054138 
	C1133.301880,203.392960 1036.130981,216.995453 940.661682,243.697433 
	C843.848694,270.775238 752.800598,311.381927 666.367493,362.428680 
	C587.455200,409.033661 514.604736,463.823669 447.619232,526.391113 
	C385.681793,584.243591 329.965057,647.557678 280.916168,716.686157 
	C236.953644,778.645996 199.217529,844.176636 168.241623,913.597656 
	C142.308044,971.718201 121.870514,1031.683105 107.450722,1093.649048 
	C86.859322,1182.135864 79.536766,1271.592285 88.990891,1362.168945 
	C95.623245,1425.711426 110.495773,1487.201416 135.080383,1546.247559 
	C174.414871,1640.718994 234.163086,1719.697876 314.885925,1782.679688 
	C317.166626,1784.459229 320.516998,1785.783569 323.369354,1785.784790 
	C626.364563,1785.923218 929.359802,1785.919067 1232.355103,1785.835815 
	C1234.883911,1785.835083 1237.687500,1785.152954 1239.901611,1783.944336 
	C1320.361572,1740.020996 1394.994995,1687.728271 1463.999023,1627.407715 
	C1535.026367,1565.318359 1598.520264,1496.312256 1653.939453,1419.927612 
	C1719.725098,1329.255005 1772.344849,1231.612183 1808.486694,1125.439087 
	C1834.861694,1047.958252 1851.785034,968.484802 1856.405640,886.560242 
	C1860.947266,806.035095 1853.824585,726.769348 1831.829712,649.009399 
	C1817.054688,596.773743 1795.992310,547.229370 1767.931519,500.753357 
	C1730.931641,439.471924 1684.263550,386.721863 1627.628784,342.833984 
	C1568.258179,296.826019 1502.661987,262.839844 1430.195679,240.335510 
z"/>
<path fill="#010100" opacity="1.000000" stroke="none" 
	d="
M1430.570923,240.470581 
	C1502.661987,262.839844 1568.258179,296.826019 1627.628784,342.833984 
	C1684.263550,386.721863 1730.931641,439.471924 1767.931519,500.753357 
	C1795.992310,547.229370 1817.054688,596.773743 1831.829712,649.009399 
	C1853.824585,726.769348 1860.947266,806.035095 1856.405640,886.560242 
	C1851.785034,968.484802 1834.861694,1047.958252 1808.486694,1125.439087 
	C1772.344849,1231.612183 1719.725098,1329.255005 1653.939453,1419.927612 
	C1598.520264,1496.312256 1535.026367,1565.318359 1463.999023,1627.407715 
	C1394.994995,1687.728271 1320.361572,1740.020996 1239.901611,1783.944336 
	C1237.687500,1785.152954 1234.883911,1785.835083 1232.355103,1785.835815 
	C929.359802,1785.919067 626.364563,1785.923218 323.369354,1785.784790 
	C320.516998,1785.783569 317.166626,1784.459229 314.885925,1782.679688 
	C234.163086,1719.697876 174.414871,1640.718994 135.080383,1546.247559 
	C110.495773,1487.201416 95.623245,1425.711426 88.990891,1362.168945 
	C79.536766,1271.592285 86.859322,1182.135864 107.450722,1093.649048 
	C121.870514,1031.683105 142.308044,971.718201 168.241623,913.597656 
	C199.217529,844.176636 236.953644,778.645996 280.916168,716.686157 
	C329.965057,647.557678 385.681793,584.243591 447.619232,526.391113 
	C514.604736,463.823669 587.455200,409.033661 666.367493,362.428680 
	C752.800598,311.381927 843.848694,270.775238 940.661682,243.697433 
	C1036.130981,216.995453 1133.301880,203.392960 1232.612061,207.054138 
	C1299.925049,209.535721 1365.837891,220.316238 1430.570923,240.470581 
M762.104004,1364.595093 
	C763.459106,1365.674072 764.809082,1367.673950 766.170044,1367.681396 
	C774.462891,1367.726807 782.763977,1367.416138 791.045715,1366.938599 
	C792.064697,1366.879761 793.185242,1365.253174 793.916382,1364.130127 
	C796.497375,1360.166382 793.348572,1356.700928 792.988525,1352.236572 
	C797.506714,1351.369019 802.523499,1348.822510 806.438904,1349.984985 
	C814.493286,1352.376587 815.746765,1353.036011 820.675354,1348.922607 
	C822.070496,1351.317871 823.465576,1353.713257 824.965942,1356.737671 
	C825.744995,1357.746460 826.523987,1358.755371 827.199646,1360.495361 
	C828.979919,1361.765015 830.630310,1363.825928 832.566833,1364.143799 
	C836.947693,1364.862793 841.470459,1364.904541 845.934387,1364.889282 
	C853.484314,1364.863403 858.698792,1360.863281 861.252991,1353.672974 
	C862.155029,1351.133545 863.343018,1348.695679 864.452942,1346.913330 
	C863.216492,1350.900024 865.427429,1353.515869 868.076660,1356.623169 
	C869.090149,1357.711304 870.103638,1358.799561 871.087463,1360.619141 
	C872.718994,1361.877808 874.214600,1363.925659 876.009705,1364.234741 
	C880.038696,1364.928833 884.218384,1364.941650 888.333252,1364.899048 
	C894.584961,1364.834473 900.028137,1362.989136 903.509460,1357.213013 
	C903.810852,1356.713013 905.312195,1356.936279 906.917236,1356.899902 
	C907.580200,1356.958008 908.243103,1357.016113 908.994690,1357.784058 
	C909.647766,1358.541016 910.300903,1359.297974 911.043335,1360.859985 
	C910.878540,1364.186768 912.667236,1365.227051 915.709290,1364.948608 
	C918.976257,1364.649658 922.834045,1366.114258 924.042908,1360.995483 
	C925.637878,1354.241699 928.025818,1347.660522 929.363892,1340.865479 
	C930.236206,1336.435669 932.684387,1335.179443 936.532227,1335.116577 
	C939.683228,1335.064941 942.854187,1335.308228 945.983154,1335.037842 
	C950.996155,1334.604614 949.773865,1329.934814 950.816345,1327.015625 
	C951.834167,1324.165161 949.384949,1323.894165 947.111877,1323.198364 
	C948.595337,1320.717041 946.809326,1319.842651 944.956848,1318.122559 
	C941.964233,1317.423218 938.971680,1316.723877 936.351746,1315.345459 
	C936.564087,1314.379028 936.896790,1313.421265 936.968323,1312.444580 
	C937.319824,1307.647339 939.413574,1305.407471 944.629761,1305.947632 
	C949.387268,1306.440186 954.255798,1306.313110 959.040222,1305.969360 
	C964.005615,1305.612427 962.823059,1300.864502 963.827271,1297.925903 
	C964.832947,1294.982788 962.248901,1294.934326 960.059631,1294.191284 
	C961.692932,1291.667969 959.722412,1290.885864 957.984863,1289.099121 
	C957.011780,1288.395874 956.048889,1287.098877 955.063965,1287.082031 
	C945.930969,1286.925537 936.792175,1287.095337 927.659546,1286.928955 
	C924.699219,1286.875122 923.588196,1288.148926 922.945312,1290.790039 
	C921.847473,1295.299683 920.455017,1299.737427 918.516724,1303.791870 
	C916.812073,1300.460815 915.107483,1297.129883 913.023376,1293.199463 
	C911.366089,1291.430542 910.034790,1288.954712 907.995422,1288.014282 
	C898.897644,1283.818604 884.385681,1287.520874 877.433228,1295.206909 
	C876.064636,1295.083984 874.695984,1294.961060 873.219238,1294.200562 
	C873.946533,1291.981201 873.616150,1290.365845 870.952393,1289.254028 
	C869.205566,1284.707642 865.394897,1287.509888 862.611450,1287.237549 
	C861.546692,1287.133423 859.554749,1289.449585 859.126587,1290.981689 
	C854.628540,1307.076050 850.371826,1323.237915 846.021912,1339.374023 
	C845.301575,1342.046265 845.016174,1345.188965 841.059631,1344.173828 
	C845.069214,1329.118530 848.968811,1314.032349 853.174255,1299.031982 
	C854.095886,1295.744629 853.354065,1294.704590 850.046204,1294.130127 
	C849.321594,1292.762451 848.596985,1291.394897 847.939087,1289.179810 
	C845.881714,1284.620850 841.936890,1287.757690 838.939514,1287.218018 
	C838.052734,1287.058472 836.127686,1289.243652 835.679993,1290.669067 
	C833.889832,1296.367554 832.493774,1302.189697 830.379822,1307.585449 
	C829.414734,1305.675659 828.449646,1303.765747 827.288208,1301.167725 
	C826.331482,1299.640747 825.374695,1298.113647 824.159485,1295.939331 
	C822.122131,1291.121338 817.959595,1290.337769 813.423950,1290.328125 
	C803.926331,1290.307983 794.428284,1290.259399 784.931274,1290.336182 
	C775.429077,1290.413086 770.246887,1294.024536 767.674744,1303.143433 
	C763.425903,1318.206909 759.554626,1333.377075 755.564819,1348.513184 
	C754.296814,1353.323486 755.184509,1357.444702 759.797791,1360.865479 
	C760.590576,1361.856323 761.383423,1362.847046 762.104004,1364.595093 
M957.600952,795.545715 
	C942.939270,766.157715 915.502319,764.832214 887.385742,764.109436 
	C887.861816,761.990906 888.191895,760.238464 888.651001,758.520386 
	C902.836243,705.434021 917.001465,652.342163 931.342041,599.297668 
	C931.956299,597.025696 933.791016,594.559875 935.765381,593.259827 
	C956.832947,579.387939 971.487671,561.030823 976.620117,535.879395 
	C979.986450,519.382751 977.134583,504.180054 965.481384,491.669159 
	C950.161926,475.222198 930.293213,473.381927 910.470276,479.065643 
	C875.035767,489.225555 851.814514,512.431458 844.583862,549.368958 
	C841.408020,565.592407 845.516418,580.552246 857.608398,592.507324 
	C859.920288,594.793091 860.081482,596.633972 859.311340,599.491455 
	C844.835449,653.198303 830.425903,706.923096 816.123596,760.676392 
	C815.231201,764.030212 813.872803,765.521362 810.257690,766.005188 
	C796.436768,767.854919 783.295837,772.022522 771.304749,779.273010 
	C746.412537,794.324280 731.938049,817.161682 724.253967,844.468750 
	C715.014282,877.304199 706.594910,910.370117 697.775146,943.324097 
	C679.360901,1012.126831 660.699280,1080.864868 642.714172,1149.779419 
	C639.940002,1160.409302 639.365051,1171.830200 639.297119,1182.894775 
	C639.210938,1196.915894 645.955872,1208.412231 655.946350,1218.728394 
	C659.162292,1225.551758 664.143677,1230.826538 670.400452,1234.904297 
	C683.133240,1243.202881 697.468750,1245.860962 712.299927,1246.006592 
	C736.457458,1246.243896 760.619324,1246.139893 784.778870,1246.057373 
	C830.972656,1245.899414 867.852112,1220.738770 882.914368,1177.133667 
	C891.266785,1152.953491 897.089600,1127.894043 903.895508,1103.187744 
	C907.089478,1091.593018 904.826294,1089.107666 892.411926,1089.255615 
	C892.523376,1088.607056 892.592590,1087.947998 892.752686,1087.311646 
	C895.540649,1076.228516 894.041748,1074.309570 882.541077,1074.305664 
	C865.895935,1074.300171 849.250793,1074.295898 832.605652,1074.307739 
	C821.314819,1074.315674 818.897095,1076.188354 815.914551,1087.267944 
	C811.935913,1102.047363 808.197876,1116.895630 803.962158,1131.600708 
	C799.968018,1145.466919 791.806335,1152.434814 777.456299,1153.131836 
	C764.360046,1153.767944 751.199036,1153.072632 737.880310,1152.126587 
	C738.332520,1149.350220 738.547974,1146.510498 739.271729,1143.806763 
	C756.182495,1080.639282 773.154114,1017.487915 790.100952,954.329956 
	C796.785034,929.419373 803.424377,904.496826 810.107727,879.586060 
	C813.500610,866.939941 821.179871,858.353149 834.594543,857.428711 
	C847.522278,856.537781 860.554810,857.134216 873.540894,857.179626 
	C874.614868,857.183411 875.686035,857.970642 876.547729,859.092773 
	C872.424988,875.041931 868.357849,891.005737 864.161194,906.935486 
	C860.980591,919.008484 862.523621,921.076538 875.430847,921.769348 
	C875.264587,922.752747 875.144287,923.746582 874.924805,924.717896 
	C872.852173,933.888672 874.443481,935.996948 883.630615,936.010132 
	C901.608459,936.035889 919.586304,936.046692 937.564026,936.003479 
	C945.645508,935.984070 949.509583,933.027527 951.603394,925.310669 
	C956.001160,909.101746 960.386902,892.889221 964.688721,876.654663 
	C968.910095,860.723816 973.346802,844.794861 972.048828,828.044312 
	C971.099487,815.792786 967.626709,804.571838 957.600952,795.545715 
M1255.545654,795.644165 
	C1250.674805,787.250122 1245.522827,779.269775 1236.633911,774.243530 
	C1226.662109,768.604858 1215.965454,765.578796 1204.750854,765.164185 
	C1185.949341,764.468933 1167.117920,764.583252 1148.299072,764.362305 
	C1146.554688,764.341858 1144.809814,764.359619 1142.877197,764.359619 
	C1143.029785,762.964233 1143.016846,762.289673 1143.184448,761.663452 
	C1157.637573,707.640503 1172.081421,653.615051 1186.673950,599.629761 
	C1187.157227,597.842407 1188.842896,595.873962 1190.501343,594.983704 
	C1244.915039,565.775879 1299.379883,536.663147 1353.925659,507.702728 
	C1355.731567,506.743866 1358.516479,507.154907 1360.739014,507.539856 
	C1368.706177,508.919678 1376.637939,511.935730 1384.564697,511.876831 
	C1425.544067,511.572174 1465.390991,477.983093 1473.768066,437.512177 
	C1478.520630,414.551575 1470.054810,392.327026 1452.458862,381.373169 
	C1438.328491,372.576630 1422.873169,370.925751 1407.173828,374.579498 
	C1372.435791,382.664246 1348.416260,403.653992 1335.080078,436.822998 
	C1334.342529,438.657410 1333.070312,440.799957 1331.442505,441.675964 
	C1300.367432,458.400177 1269.196533,474.946350 1238.055786,491.548645 
	C1206.474609,508.385712 1174.765137,524.989624 1143.389526,542.201599 
	C1128.126709,550.574463 1117.637085,563.429138 1113.005371,580.494385 
	C1106.204346,605.552063 1099.589233,630.660156 1092.867310,655.739380 
	C1083.603394,690.302917 1074.224365,724.836182 1065.151855,759.449829 
	C1064.069458,763.579468 1062.333130,764.797668 1058.353760,764.431946 
	C1054.719360,764.097961 1051.021729,764.231812 1047.364380,764.412903 
	C1040.447021,764.755615 1036.685913,767.834961 1034.868408,774.502625 
	C1032.373413,783.656067 1029.943359,792.827332 1027.489014,801.991821 
	C994.766541,924.177429 962.044128,1046.363037 929.322998,1168.549072 
	C924.673157,1185.912231 919.969666,1203.261230 915.413635,1220.649048 
	C913.682739,1227.254517 915.864685,1230.067139 922.613586,1230.549316 
	C924.433105,1230.679321 926.251465,1230.826904 927.867554,1231.724243 
	C927.679749,1232.363159 927.481934,1232.999268 927.305786,1233.641357 
	C924.563232,1243.635010 926.386292,1246.066162 936.669556,1246.071167 
	C954.822937,1246.080078 972.976257,1246.088257 991.129639,1246.066284 
	C1000.142456,1246.055420 1003.873474,1243.279419 1006.190063,1234.722534 
	C1011.148254,1216.408691 1016.043030,1198.077637 1020.950989,1179.750122 
	C1028.614746,1151.131836 1036.233154,1122.501343 1044.020386,1093.916626 
	C1044.439697,1092.377197 1046.211914,1090.081543 1047.396606,1090.055420 
	C1056.201660,1089.860596 1065.017456,1090.150879 1073.829834,1091.190063 
	C1073.635986,1133.981812 1073.440918,1176.773438 1073.249390,1219.565186 
	C1073.206055,1229.240845 1074.435303,1230.485474 1084.351196,1231.522339 
	C1084.374390,1232.854492 1084.412354,1234.186523 1084.418457,1235.518799 
	C1084.459839,1244.558472 1085.932373,1246.071899 1094.749756,1246.073853 
	C1113.074951,1246.078125 1131.400269,1246.077637 1149.725464,1246.074341 
	C1160.892578,1246.072388 1163.889160,1243.060059 1163.941284,1231.861816 
	C1164.164673,1183.888306 1164.446655,1135.914795 1164.529663,1087.941040 
	C1164.536499,1083.991577 1165.973022,1082.450195 1169.346436,1080.554688 
	C1177.713501,1075.853271 1186.240356,1071.031860 1193.504028,1064.849976 
	C1212.070557,1049.048218 1221.792847,1027.800171 1227.986694,1004.720642 
	C1240.157837,959.368408 1252.320923,914.013916 1264.417358,868.641663 
	C1267.856445,855.742493 1270.713623,842.706665 1269.875488,829.228943 
	C1269.092896,816.641968 1265.918945,804.962891 1255.545654,795.644165 
M499.773407,949.270325 
	C506.047089,925.665894 512.109924,902.002686 518.674133,878.479309 
	C522.568542,864.523499 533.085693,857.067078 547.527283,857.003906 
	C556.176819,856.966064 564.827759,856.921204 573.475891,857.038513 
	C576.434631,857.078552 579.386841,857.602112 582.333191,858.773254 
	C578.431885,874.073914 574.573547,889.385742 570.616394,904.671997 
	C567.134644,918.121765 567.910217,919.197449 581.737122,920.425476 
	C581.496216,921.394348 581.257446,922.363831 581.014038,923.332031 
	C578.761230,932.293640 580.807739,934.953430 590.072998,934.962646 
	C609.049316,934.981506 628.025879,935.007507 647.001953,934.938721 
	C653.947449,934.913513 658.043335,931.869141 659.795837,925.322754 
	C665.773560,902.993408 671.791138,880.672546 677.478516,858.268494 
	C680.315063,847.094482 681.697449,835.667542 680.013733,824.124573 
	C678.502808,813.766663 675.454224,804.059387 666.710754,796.369263 
	C665.943726,795.285522 665.008301,794.283569 664.435730,793.105347 
	C658.719971,781.342896 649.309204,773.845825 637.165283,769.625671 
	C625.551331,765.589661 613.492737,764.307617 601.257935,764.359863 
	C599.206970,764.368652 597.155884,764.361084 594.853882,764.361084 
	C595.104004,762.868103 595.159241,762.207642 595.328125,761.577698 
	C609.726257,707.893555 624.178467,654.223755 638.444153,600.504517 
	C639.468689,596.646729 641.319031,594.251526 644.583191,592.090332 
	C665.955322,577.940308 680.410889,558.890991 684.488770,533.109924 
	C687.139587,516.351379 683.342102,501.239380 670.556763,489.314819 
	C655.262939,475.050537 636.518738,473.739655 618.043823,478.991913 
	C583.399292,488.841064 560.376770,511.410889 552.321472,547.219666 
	C548.471069,564.336304 552.480957,580.035767 565.249939,592.729370 
	C567.400818,594.867493 567.597046,596.586304 566.872925,599.275085 
	C552.362305,653.152649 537.916992,707.047852 523.554871,760.965210 
	C522.726013,764.076660 521.543213,765.552490 518.054077,766.070801 
	C496.026093,769.342896 476.590759,778.106995 460.937073,794.322449 
	C445.851959,809.948975 437.027252,828.831970 431.563843,849.680359 
	C419.784637,894.629761 407.576416,939.466675 395.619904,984.369812 
	C392.111481,997.545837 394.187408,1002.251465 405.350555,1008.664795 
	C405.492798,1016.736511 410.427338,1020.903076 417.384186,1023.403870 
	C454.180603,1036.631348 490.978973,1049.853394 527.806458,1063.844971 
	C525.245422,1073.656982 522.739807,1083.483887 520.109802,1093.277344 
	C516.529968,1106.608032 513.155640,1120.004883 509.133270,1133.202637 
	C505.425781,1145.367432 497.106354,1152.759766 484.047485,1153.117432 
	C471.436218,1153.463013 458.802887,1153.002563 446.058868,1152.078857 
	C446.576782,1149.157593 446.894440,1146.183838 447.646484,1143.324097 
	C451.354309,1129.225342 455.286255,1115.184570 458.911072,1101.064941 
	C460.595947,1094.502197 458.584747,1092.254517 451.902557,1091.810425 
	C449.759399,1091.668091 447.669067,1090.730103 446.129852,1089.543579 
	C446.458344,1087.786743 446.818329,1086.035034 447.109650,1084.271973 
	C448.111267,1078.210815 446.819397,1076.294678 440.760590,1076.255127 
	C420.445526,1076.122437 400.128723,1076.149536 379.813293,1076.253296 
	C374.187866,1076.281982 370.251801,1079.202759 368.790649,1084.684937 
	C362.276093,1109.128418 355.331055,1133.477295 349.653259,1158.116455 
	C346.063782,1173.693115 345.759155,1189.703247 354.013641,1204.330444 
	C356.996002,1209.615356 361.392822,1214.102173 365.075165,1219.655273 
	C370.128540,1229.455811 378.300873,1235.697266 388.221497,1240.760620 
	C376.320984,1285.291870 364.513763,1329.848267 352.463440,1374.338989 
	C348.823120,1387.779053 344.451904,1401.020020 340.519684,1414.382812 
	C336.940491,1426.546021 338.609375,1437.364868 347.251373,1447.417725 
	C368.636871,1472.294434 389.391449,1497.713257 410.722870,1522.637451 
	C414.689514,1527.272217 416.524628,1531.315063 413.947937,1537.109131 
	C412.893829,1539.479248 412.704498,1542.278076 412.360748,1544.912964 
	C408.547760,1574.138062 424.802521,1600.264404 456.285675,1604.364014 
	C474.365967,1606.718384 491.064148,1602.368164 506.594391,1593.417969 
	C533.624756,1577.840088 551.279724,1555.397217 555.509216,1523.817505 
	C558.380615,1502.378540 547.935913,1481.728027 529.638733,1472.239258 
	C515.369568,1464.839355 500.261383,1464.316040 484.921051,1468.161377 
	C481.918915,1468.913696 480.100098,1468.490601 478.083527,1466.065674 
	C461.151367,1445.704834 444.133514,1425.414551 427.003967,1405.219604 
	C424.723511,1402.531006 424.142822,1400.196533 425.084381,1396.741089 
	C434.314911,1362.865356 443.322235,1328.928833 452.473145,1295.031372 
	C456.892517,1278.660767 461.482544,1262.336426 466.931122,1246.059570 
	C475.762848,1246.063354 484.594757,1246.108643 493.426239,1246.063843 
	C539.889221,1245.828735 577.045532,1219.901245 591.657043,1175.868408 
	C599.614441,1151.888184 605.514343,1127.219849 612.172607,1102.815430 
	C619.007446,1077.763794 625.744568,1052.684082 632.304443,1027.559326 
	C635.239990,1016.315796 632.268066,1010.388977 622.066589,1004.948364 
	C621.695374,996.592651 616.662537,992.195374 609.292969,989.570618 
	C576.997559,978.068237 544.724182,966.503845 512.451843,954.936890 
	C508.153687,953.396362 503.907043,951.712097 499.773407,949.270325 
M1543.103882,873.818176 
	C1543.430542,873.753845 1543.757324,873.633301 1544.083984,873.633179 
	C1587.412231,873.614441 1630.740601,873.570312 1674.068237,873.728638 
	C1675.679932,873.734497 1677.650513,875.415161 1678.821899,876.836243 
	C1682.083008,880.792786 1684.467163,885.609802 1688.166138,889.043823 
	C1702.991455,902.807068 1721.056519,905.183044 1739.571289,900.175415 
	C1774.204590,890.808044 1797.077271,868.962646 1806.378052,833.566040 
	C1814.522217,802.571228 1793.200317,773.782593 1761.191162,772.966858 
	C1737.028809,772.351074 1717.276489,782.198975 1700.142456,798.259827 
	C1697.489502,800.746582 1695.018066,801.847046 1691.397949,801.838623 
	C1643.903564,801.728027 1596.406982,801.543945 1548.916138,801.973877 
	C1540.614746,802.049011 1536.406738,798.231628 1533.059204,791.908020 
	C1529.556641,785.291565 1524.818481,779.905273 1518.514160,775.776367 
	C1506.816162,768.114807 1493.690918,765.084717 1480.083130,764.803040 
	C1454.430664,764.272034 1428.754517,764.030334 1403.104248,764.516663 
	C1383.560791,764.887085 1364.764282,769.273376 1347.911133,779.809448 
	C1323.571411,795.026062 1309.393433,817.707703 1302.069824,844.768677 
	C1279.228882,929.166443 1256.677368,1013.643066 1234.199463,1098.138428 
	C1228.252441,1120.493652 1222.171631,1142.867188 1217.660278,1165.532471 
	C1214.434814,1181.737061 1216.540527,1197.830688 1227.562256,1211.455322 
	C1229.646606,1214.031860 1231.919678,1216.455688 1234.063354,1219.661133 
	C1238.987549,1229.718384 1247.208984,1236.362305 1257.442993,1239.890259 
	C1265.964111,1242.827759 1275.030151,1244.183594 1283.459961,1246.857910 
	C1282.918579,1249.277832 1282.464478,1251.721191 1281.823120,1254.114502 
	C1268.630615,1303.350586 1255.448853,1352.589722 1242.095215,1401.781982 
	C1241.530029,1403.864014 1239.724487,1406.230225 1237.840454,1407.242676 
	C1183.307617,1436.545654 1128.701294,1465.712402 1074.035767,1494.767212 
	C1072.451172,1495.609497 1070.009766,1495.405029 1068.116577,1494.997437 
	C1061.807129,1493.638672 1055.635864,1491.044800 1049.286621,1490.559082 
	C1004.419678,1487.127441 957.365540,1527.049316 953.392578,1571.984131 
	C951.722351,1590.875000 957.321045,1607.366821 973.066589,1619.080322 
	C986.586670,1629.138306 1002.269653,1631.516113 1018.288086,1628.266968 
	C1054.084961,1621.005859 1078.762939,1599.840210 1092.781860,1566.131592 
	C1093.613037,1564.133179 1094.856201,1561.713989 1096.599609,1560.774414 
	C1131.320557,1542.060791 1166.149292,1523.547363 1200.944092,1504.970825 
	C1229.571899,1489.686646 1258.375000,1474.716309 1286.721802,1458.927368 
	C1300.826294,1451.071289 1310.412231,1438.689575 1314.792847,1422.978271 
	C1321.456787,1399.077637 1327.734009,1375.068237 1334.050415,1351.072021 
	C1343.198242,1316.317749 1352.229492,1281.532837 1361.371216,1246.776855 
	C1361.485718,1246.341675 1362.400757,1246.117065 1363.851318,1245.928467 
	C1387.074951,1245.196411 1408.559692,1239.239258 1427.080933,1224.620605 
	C1447.000854,1208.897949 1458.413940,1187.748535 1464.888794,1163.745117 
	C1486.012451,1085.434937 1506.953125,1007.075623 1527.920532,928.723633 
	C1532.783325,910.552185 1537.473511,892.334656 1543.103882,873.818176 
z"/>
<path fill="#FED41E" opacity="1.000000" stroke="none" 
	d="
M1362.942383,1245.794189 
	C1362.400757,1246.117065 1361.485718,1246.341675 1361.371216,1246.776855 
	C1352.229492,1281.532837 1343.198242,1316.317749 1334.050415,1351.072021 
	C1327.734009,1375.068237 1321.456787,1399.077637 1314.792847,1422.978271 
	C1310.412231,1438.689575 1300.826294,1451.071289 1286.721802,1458.927368 
	C1258.375000,1474.716309 1229.571899,1489.686646 1200.944092,1504.970825 
	C1166.149292,1523.547363 1131.320557,1542.060791 1096.599609,1560.774414 
	C1094.856201,1561.713989 1093.613037,1564.133179 1092.781860,1566.131592 
	C1078.762939,1599.840210 1054.084961,1621.005859 1018.288086,1628.266968 
	C1002.269653,1631.516113 986.586670,1629.138306 973.066589,1619.080322 
	C957.321045,1607.366821 951.722351,1590.875000 953.392578,1571.984131 
	C957.365540,1527.049316 1004.419678,1487.127441 1049.286621,1490.559082 
	C1055.635864,1491.044800 1061.807129,1493.638672 1068.116577,1494.997437 
	C1070.009766,1495.405029 1072.451172,1495.609497 1074.035767,1494.767212 
	C1128.701294,1465.712402 1183.307617,1436.545654 1237.840454,1407.242676 
	C1239.724487,1406.230225 1241.530029,1403.864014 1242.095215,1401.781982 
	C1255.448853,1352.589722 1268.630615,1303.350586 1281.823120,1254.114502 
	C1282.464478,1251.721191 1282.918579,1249.277832 1283.749878,1246.154907 
	C1285.294189,1240.861450 1286.548462,1236.270996 1287.869629,1231.436279 
	C1283.011108,1230.943848 1278.618286,1230.264160 1274.206055,1230.095337 
	C1260.927979,1229.587402 1248.320801,1226.877441 1236.935791,1219.651733 
	C1236.157593,1219.157593 1235.056641,1219.171997 1234.105713,1218.949951 
	C1231.919678,1216.455688 1229.646606,1214.031860 1227.562256,1211.455322 
	C1216.540527,1197.830688 1214.434814,1181.737061 1217.660278,1165.532471 
	C1222.171631,1142.867188 1228.252441,1120.493652 1234.199463,1098.138428 
	C1256.677368,1013.643066 1279.228882,929.166443 1302.069824,844.768677 
	C1309.393433,817.707703 1323.571411,795.026062 1347.911133,779.809448 
	C1364.764282,769.273376 1383.560791,764.887085 1403.104248,764.516663 
	C1428.754517,764.030334 1454.430664,764.272034 1480.083130,764.803040 
	C1493.690918,765.084717 1506.816162,768.114807 1518.514160,775.776367 
	C1524.818481,779.905273 1529.556641,785.291565 1533.059204,791.908020 
	C1536.406738,798.231628 1540.614746,802.049011 1548.916138,801.973877 
	C1596.406982,801.543945 1643.903564,801.728027 1691.397949,801.838623 
	C1695.018066,801.847046 1697.489502,800.746582 1700.142456,798.259827 
	C1717.276489,782.198975 1737.028809,772.351074 1761.191162,772.966858 
	C1793.200317,773.782593 1814.522217,802.571228 1806.378052,833.566040 
	C1797.077271,868.962646 1774.204590,890.808044 1739.571289,900.175415 
	C1721.056519,905.183044 1702.991455,902.807068 1688.166138,889.043823 
	C1684.467163,885.609802 1682.083008,880.792786 1678.821899,876.836243 
	C1677.650513,875.415161 1675.679932,873.734497 1674.068237,873.728638 
	C1630.740601,873.570312 1587.412231,873.614441 1544.083984,873.633179 
	C1543.757324,873.633301 1543.430542,873.753845 1542.193604,873.913269 
	C1538.117310,873.990845 1534.933105,874.179077 1531.789795,873.902405 
	C1528.054565,873.573792 1526.703247,875.111023 1525.791992,878.722656 
	C1520.881958,898.183899 1515.689453,917.574829 1510.485474,936.960754 
	C1498.009888,983.434570 1485.556641,1029.914795 1472.931519,1076.348022 
	C1465.181641,1104.850708 1457.780518,1133.474121 1448.992432,1161.659790 
	C1442.891479,1181.227173 1430.720825,1197.240967 1414.536865,1210.100464 
	C1401.412598,1220.528564 1386.217529,1225.801514 1370.068359,1229.018311 
	C1368.668457,1229.296997 1366.607300,1230.241821 1366.293823,1231.302856 
	C1364.891357,1236.049072 1364.011108,1240.949463 1362.942383,1245.794189 
M1456.044312,855.193359 
	C1456.711426,845.177551 1449.575562,839.898071 1440.508301,839.952026 
	C1428.854004,840.021362 1417.182495,840.356750 1405.547607,839.873352 
	C1386.833862,839.095825 1377.648193,850.145386 1374.099121,864.379333 
	C1371.654175,874.185181 1369.182251,883.986023 1366.564331,893.746704 
	C1354.926392,937.138184 1343.183960,980.501648 1331.570923,1023.899841 
	C1321.630005,1061.050171 1311.742554,1098.215088 1301.986450,1135.414307 
	C1299.146484,1146.242798 1302.359497,1151.553101 1313.866333,1155.077393 
	C1327.339355,1155.258179 1340.843384,1156.091431 1354.277344,1155.451904 
	C1370.435425,1154.682495 1378.605225,1147.444702 1382.934692,1131.757935 
	C1388.066772,1113.162476 1392.998779,1094.511719 1397.992554,1075.878296 
	C1414.395386,1014.675171 1430.831421,953.480896 1447.144043,892.253784 
	C1450.341919,880.251648 1453.045044,868.117737 1456.044312,855.193359 
z"/>
<path fill="#FED41E" opacity="1.000000" stroke="none" 
	d="
M465.995270,1245.991089 
	C461.482544,1262.336426 456.892517,1278.660767 452.473145,1295.031372 
	C443.322235,1328.928833 434.314911,1362.865356 425.084381,1396.741089 
	C424.142822,1400.196533 424.723511,1402.531006 427.003967,1405.219604 
	C444.133514,1425.414551 461.151367,1445.704834 478.083527,1466.065674 
	C480.100098,1468.490601 481.918915,1468.913696 484.921051,1468.161377 
	C500.261383,1464.316040 515.369568,1464.839355 529.638733,1472.239258 
	C547.935913,1481.728027 558.380615,1502.378540 555.509216,1523.817505 
	C551.279724,1555.397217 533.624756,1577.840088 506.594391,1593.417969 
	C491.064148,1602.368164 474.365967,1606.718384 456.285675,1604.364014 
	C424.802521,1600.264404 408.547760,1574.138062 412.360748,1544.912964 
	C412.704498,1542.278076 412.893829,1539.479248 413.947937,1537.109131 
	C416.524628,1531.315063 414.689514,1527.272217 410.722870,1522.637451 
	C389.391449,1497.713257 368.636871,1472.294434 347.251373,1447.417725 
	C338.609375,1437.364868 336.940491,1426.546021 340.519684,1414.382812 
	C344.451904,1401.020020 348.823120,1387.779053 352.463440,1374.338989 
	C364.513763,1329.848267 376.320984,1285.291870 388.472107,1240.095947 
	C389.578674,1235.871094 390.434662,1232.311035 391.130951,1229.414917 
	C383.874634,1226.570312 377.608185,1224.136230 371.361542,1221.652466 
	C369.263092,1220.817993 367.215179,1219.856567 365.144196,1218.953125 
	C361.392822,1214.102173 356.996002,1209.615356 354.013641,1204.330444 
	C345.759155,1189.703247 346.063782,1173.693115 349.653259,1158.116455 
	C355.331055,1133.477295 362.276093,1109.128418 368.790649,1084.684937 
	C370.251801,1079.202759 374.187866,1076.281982 379.813293,1076.253296 
	C400.128723,1076.149536 420.445526,1076.122437 440.760590,1076.255127 
	C446.819397,1076.294678 448.111267,1078.210815 447.109650,1084.271973 
	C446.818329,1086.035034 446.458344,1087.786743 445.587036,1090.113525 
	C444.675415,1093.628174 444.619843,1096.654053 443.881348,1099.502930 
	C441.257568,1109.624390 438.264252,1119.650635 435.667633,1129.778687 
	C432.499390,1142.136230 434.903534,1150.173340 446.179230,1152.896240 
	C458.802887,1153.002563 471.436218,1153.463013 484.047485,1153.117432 
	C497.106354,1152.759766 505.425781,1145.367432 509.133270,1133.202637 
	C513.155640,1120.004883 516.529968,1106.608032 520.109802,1093.277344 
	C522.739807,1083.483887 525.245422,1073.656982 528.099854,1063.229126 
	C528.929504,1060.540649 529.280579,1058.396484 530.048096,1056.413330 
	C531.052612,1053.817627 530.460205,1052.707397 527.709045,1051.730225 
	C502.848969,1042.900757 478.059052,1033.873901 453.233765,1024.946167 
	C437.319946,1019.223083 421.381195,1013.569397 405.453613,1007.884644 
	C394.187408,1002.251465 392.111481,997.545837 395.619904,984.369812 
	C407.576416,939.466675 419.784637,894.629761 431.563843,849.680359 
	C437.027252,828.831970 445.851959,809.948975 460.937073,794.322449 
	C476.590759,778.106995 496.026093,769.342896 518.054077,766.070801 
	C521.543213,765.552490 522.726013,764.076660 523.554871,760.965210 
	C537.916992,707.047852 552.362305,653.152649 566.872925,599.275085 
	C567.597046,596.586304 567.400818,594.867493 565.249939,592.729370 
	C552.480957,580.035767 548.471069,564.336304 552.321472,547.219666 
	C560.376770,511.410889 583.399292,488.841064 618.043823,478.991913 
	C636.518738,473.739655 655.262939,475.050537 670.556763,489.314819 
	C683.342102,501.239380 687.139587,516.351379 684.488770,533.109924 
	C680.410889,558.890991 665.955322,577.940308 644.583191,592.090332 
	C641.319031,594.251526 639.468689,596.646729 638.444153,600.504517 
	C624.178467,654.223755 609.726257,707.893555 595.328125,761.577698 
	C595.159241,762.207642 595.104004,762.868103 594.853882,764.361084 
	C597.155884,764.361084 599.206970,764.368652 601.257935,764.359863 
	C613.492737,764.307617 625.551331,765.589661 637.165283,769.625671 
	C649.309204,773.845825 658.719971,781.342896 664.435730,793.105347 
	C665.008301,794.283569 665.943726,795.285522 666.820557,797.104126 
	C670.284363,813.852783 669.731018,829.784119 665.628418,845.570496 
	C662.337524,858.233459 658.779480,870.826843 655.350342,883.453918 
	C652.919678,892.404602 650.669373,901.408264 648.033569,910.297852 
	C645.902893,917.483887 643.506348,919.046021 636.172241,919.056396 
	C627.523071,919.068542 618.873413,919.002380 610.224854,919.074890 
	C600.768799,919.154114 591.313721,919.353210 581.858215,919.500000 
	C567.910217,919.197449 567.134644,918.121765 570.616394,904.671997 
	C574.573547,889.385742 578.431885,874.073914 582.556824,858.063660 
	C582.194641,847.594116 578.885803,842.963745 569.313232,842.077942 
	C557.788574,841.011414 546.079956,840.580139 534.545166,841.327332 
	C520.993408,842.205200 510.997894,849.217896 507.236084,862.914246 
	C500.395813,887.818787 493.854492,912.805481 487.226257,937.767944 
	C485.340210,944.871033 485.384308,944.927490 492.128876,947.578064 
	C494.582123,948.542297 497.131195,949.262695 499.636566,950.094299 
	C503.907043,951.712097 508.153687,953.396362 512.451843,954.936890 
	C544.724182,966.503845 576.997559,978.068237 609.292969,989.570618 
	C616.662537,992.195374 621.695374,996.592651 622.050049,1005.746338 
	C621.485474,1009.133545 621.055420,1011.754333 620.371399,1014.307190 
	C611.105896,1048.885864 601.821045,1083.459351 592.507080,1118.025024 
	C586.864929,1138.964355 582.793152,1160.420410 571.755188,1179.562378 
	C560.521423,1199.044067 544.914001,1213.339111 524.073059,1222.268188 
	C508.892517,1228.771729 492.939545,1229.700684 476.937714,1230.912231 
	C468.919586,1231.519287 468.881897,1231.342896 467.181946,1239.154053 
	C466.690491,1241.412109 466.385651,1243.710938 465.995270,1245.991089 
z"/>
<path fill="#FED41E" opacity="1.000000" stroke="none" 
	d="
M928.070312,1230.966553 
	C926.251465,1230.826904 924.433105,1230.679321 922.613586,1230.549316 
	C915.864685,1230.067139 913.682739,1227.254517 915.413635,1220.649048 
	C919.969666,1203.261230 924.673157,1185.912231 929.322998,1168.549072 
	C962.044128,1046.363037 994.766541,924.177429 1027.489014,801.991821 
	C1029.943359,792.827332 1032.373413,783.656067 1034.868408,774.502625 
	C1036.685913,767.834961 1040.447021,764.755615 1047.364380,764.412903 
	C1051.021729,764.231812 1054.719360,764.097961 1058.353760,764.431946 
	C1062.333130,764.797668 1064.069458,763.579468 1065.151855,759.449829 
	C1074.224365,724.836182 1083.603394,690.302917 1092.867310,655.739380 
	C1099.589233,630.660156 1106.204346,605.552063 1113.005371,580.494385 
	C1117.637085,563.429138 1128.126709,550.574463 1143.389526,542.201599 
	C1174.765137,524.989624 1206.474609,508.385712 1238.055786,491.548645 
	C1269.196533,474.946350 1300.367432,458.400177 1331.442505,441.675964 
	C1333.070312,440.799957 1334.342529,438.657410 1335.080078,436.822998 
	C1348.416260,403.653992 1372.435791,382.664246 1407.173828,374.579498 
	C1422.873169,370.925751 1438.328491,372.576630 1452.458862,381.373169 
	C1470.054810,392.327026 1478.520630,414.551575 1473.768066,437.512177 
	C1465.390991,477.983093 1425.544067,511.572174 1384.564697,511.876831 
	C1376.637939,511.935730 1368.706177,508.919678 1360.739014,507.539856 
	C1358.516479,507.154907 1355.731567,506.743866 1353.925659,507.702728 
	C1299.379883,536.663147 1244.915039,565.775879 1190.501343,594.983704 
	C1188.842896,595.873962 1187.157227,597.842407 1186.673950,599.629761 
	C1172.081421,653.615051 1157.637573,707.640503 1143.184448,761.663452 
	C1143.016846,762.289673 1143.029785,762.964233 1142.877197,764.359619 
	C1144.809814,764.359619 1146.554688,764.341858 1148.299072,764.362305 
	C1167.117920,764.583252 1185.949341,764.468933 1204.750854,765.164185 
	C1215.965454,765.578796 1226.662109,768.604858 1236.633911,774.243530 
	C1245.522827,779.269775 1250.674805,787.250122 1255.708496,796.348267 
	C1256.898315,804.756653 1259.131958,812.535400 1258.661743,820.147156 
	C1258.002686,830.819580 1256.110718,841.572327 1253.388428,851.934021 
	C1240.865479,899.597656 1228.125610,947.208191 1214.954712,994.696594 
	C1206.215332,1026.206909 1188.658936,1051.116089 1158.175293,1065.299438 
	C1154.316895,1067.094604 1152.904053,1069.273071 1152.917358,1073.602295 
	C1153.060913,1120.095215 1152.978638,1166.588867 1152.957153,1213.082397 
	C1152.956421,1214.582153 1153.041382,1216.089355 1152.924194,1217.580322 
	C1152.170166,1227.171021 1148.825684,1230.907837 1140.364990,1230.913452 
	C1121.610596,1230.926147 1102.856079,1230.720825 1084.101685,1230.604370 
	C1074.435303,1230.485474 1073.206055,1229.240845 1073.249390,1219.565186 
	C1073.440918,1176.773438 1073.635986,1133.981812 1073.895996,1090.256714 
	C1073.965576,1085.659302 1073.887451,1081.992798 1073.998535,1078.331909 
	C1074.085571,1075.463379 1073.079224,1074.002197 1069.988647,1074.023315 
	C1058.996948,1074.098633 1048.001709,1073.938721 1037.015503,1074.197754 
	C1035.645264,1074.229980 1033.480103,1076.004517 1033.101929,1077.365845 
	C1026.931641,1099.578735 1020.961365,1121.847778 1015.004578,1144.119751 
	C1008.191101,1169.594849 1001.437378,1195.085815 994.653503,1220.568848 
	C993.410522,1225.237671 990.742065,1228.736816 985.893799,1229.821655 
	C982.683655,1230.539917 979.328186,1230.883545 976.034424,1230.906372 
	C960.046997,1231.016968 944.058472,1230.962524 928.070312,1230.966553 
M1171.830322,856.700989 
	C1172.575195,850.213013 1169.927612,845.612427 1163.807373,843.452637 
	C1160.422363,842.258118 1156.778320,841.195496 1153.236816,841.148315 
	C1135.770264,840.915527 1118.298218,841.109131 1100.829468,840.981995 
	C1097.592773,840.958435 1095.872559,842.146851 1095.109863,845.192566 
	C1094.184326,848.888062 1093.112793,852.546814 1092.124023,856.226685 
	C1080.171265,900.708252 1068.213013,945.188293 1056.297729,989.679871 
	C1055.637573,992.144775 1055.342773,994.707520 1054.778687,997.761597 
	C1060.510620,997.761597 1065.453247,997.761597 1071.282349,997.723694 
	C1084.107666,997.727966 1096.941406,998.002563 1109.754272,997.605042 
	C1114.972656,997.443237 1120.461426,996.615417 1125.273804,994.700134 
	C1135.315552,990.703613 1139.472534,981.815857 1142.093018,971.946045 
	C1151.019409,938.326233 1160.080933,904.742249 1168.989014,871.117615 
	C1170.161743,866.691101 1170.744385,862.108276 1171.830322,856.700989 
z"/>
<path fill="#FED41E" opacity="1.000000" stroke="none" 
	d="
M875.047668,920.974731 
	C862.523621,921.076538 860.980591,919.008484 864.161194,906.935486 
	C868.357849,891.005737 872.424988,875.041931 876.731934,858.316772 
	C876.643188,848.240662 871.954712,842.351257 862.947632,841.908325 
	C850.341125,841.288391 837.636658,840.514282 825.088440,841.409546 
	C810.230896,842.469482 801.596558,851.786682 798.135864,866.101501 
	C796.382690,873.353027 794.490540,880.572510 792.557922,887.778809 
	C776.915466,946.106445 761.250549,1004.428040 745.587952,1062.750366 
	C739.562927,1085.185669 733.410889,1107.587646 727.537598,1130.062622 
	C723.965393,1143.731812 727.028625,1150.009766 738.066589,1152.964111 
	C751.199036,1153.072632 764.360046,1153.767944 777.456299,1153.131836 
	C791.806335,1152.434814 799.968018,1145.466919 803.962158,1131.600708 
	C808.197876,1116.895630 811.935913,1102.047363 815.914551,1087.267944 
	C818.897095,1076.188354 821.314819,1074.315674 832.605652,1074.307739 
	C849.250793,1074.295898 865.895935,1074.300171 882.541077,1074.305664 
	C894.041748,1074.309570 895.540649,1076.228516 892.752686,1087.311646 
	C892.592590,1087.947998 892.523376,1088.607056 892.290039,1089.898438 
	C889.114380,1101.396729 885.925476,1112.216187 883.036194,1123.115112 
	C877.635742,1143.486572 873.124634,1164.131836 861.849304,1182.430664 
	C851.265198,1199.607788 837.117615,1212.618164 818.678711,1220.990112 
	C801.506104,1228.786865 783.268799,1230.680054 764.768677,1230.902710 
	C745.444031,1231.135132 726.103760,1231.333618 706.791321,1230.795410 
	C697.081970,1230.524902 687.217651,1229.420044 677.798706,1227.141235 
	C670.227600,1225.309326 663.221252,1221.143066 655.964294,1218.012695 
	C645.955872,1208.412231 639.210938,1196.915894 639.297119,1182.894775 
	C639.365051,1171.830200 639.940002,1160.409302 642.714172,1149.779419 
	C660.699280,1080.864868 679.360901,1012.126831 697.775146,943.324097 
	C706.594910,910.370117 715.014282,877.304199 724.253967,844.468750 
	C731.938049,817.161682 746.412537,794.324280 771.304749,779.273010 
	C783.295837,772.022522 796.436768,767.854919 810.257690,766.005188 
	C813.872803,765.521362 815.231201,764.030212 816.123596,760.676392 
	C830.425903,706.923096 844.835449,653.198303 859.311340,599.491455 
	C860.081482,596.633972 859.920288,594.793091 857.608398,592.507324 
	C845.516418,580.552246 841.408020,565.592407 844.583862,549.368958 
	C851.814514,512.431458 875.035767,489.225555 910.470276,479.065643 
	C930.293213,473.381927 950.161926,475.222198 965.481384,491.669159 
	C977.134583,504.180054 979.986450,519.382751 976.620117,535.879395 
	C971.487671,561.030823 956.832947,579.387939 935.765381,593.259827 
	C933.791016,594.559875 931.956299,597.025696 931.342041,599.297668 
	C917.001465,652.342163 902.836243,705.434021 888.651001,758.520386 
	C888.191895,760.238464 887.861816,761.990906 887.385742,764.109436 
	C915.502319,764.832214 942.939270,766.157715 957.750427,796.254211 
	C961.385193,808.774780 962.540039,820.912537 959.710327,832.827759 
	C953.478027,859.070496 946.575806,885.156250 939.742554,911.252563 
	C938.040405,917.753235 933.204468,920.960266 926.433350,920.970764 
	C909.304810,920.997253 892.176208,920.976501 875.047668,920.974731 
z"/>
<path fill="#CAA818" opacity="1.000000" stroke="none" 
	d="
M1084.226440,1231.063354 
	C1102.856079,1230.720825 1121.610596,1230.926147 1140.364990,1230.913452 
	C1148.825684,1230.907837 1152.170166,1227.171021 1152.924194,1217.580322 
	C1153.041382,1216.089355 1152.956421,1214.582153 1152.957153,1213.082397 
	C1152.978638,1166.588867 1153.060913,1120.095215 1152.917358,1073.602295 
	C1152.904053,1069.273071 1154.316895,1067.094604 1158.175293,1065.299438 
	C1188.658936,1051.116089 1206.215332,1026.206909 1214.954712,994.696594 
	C1228.125610,947.208191 1240.865479,899.597656 1253.388428,851.934021 
	C1256.110718,841.572327 1258.002686,830.819580 1258.661743,820.147156 
	C1259.131958,812.535400 1256.898315,804.756653 1255.878052,796.651123 
	C1265.918945,804.962891 1269.092896,816.641968 1269.875488,829.228943 
	C1270.713623,842.706665 1267.856445,855.742493 1264.417358,868.641663 
	C1252.320923,914.013916 1240.157837,959.368408 1227.986694,1004.720642 
	C1221.792847,1027.800171 1212.070557,1049.048218 1193.504028,1064.849976 
	C1186.240356,1071.031860 1177.713501,1075.853271 1169.346436,1080.554688 
	C1165.973022,1082.450195 1164.536499,1083.991577 1164.529663,1087.941040 
	C1164.446655,1135.914795 1164.164673,1183.888306 1163.941284,1231.861816 
	C1163.889160,1243.060059 1160.892578,1246.072388 1149.725464,1246.074341 
	C1131.400269,1246.077637 1113.074951,1246.078125 1094.749756,1246.073853 
	C1085.932373,1246.071899 1084.459839,1244.558472 1084.418457,1235.518799 
	C1084.412354,1234.186523 1084.374390,1232.854492 1084.226440,1231.063354 
z"/>
<path fill="#C9A818" opacity="1.000000" stroke="none" 
	d="
M1363.396851,1245.861328 
	C1364.011108,1240.949463 1364.891357,1236.049072 1366.293823,1231.302856 
	C1366.607300,1230.241821 1368.668457,1229.296997 1370.068359,1229.018311 
	C1386.217529,1225.801514 1401.412598,1220.528564 1414.536865,1210.100464 
	C1430.720825,1197.240967 1442.891479,1181.227173 1448.992432,1161.659790 
	C1457.780518,1133.474121 1465.181641,1104.850708 1472.931519,1076.348022 
	C1485.556641,1029.914795 1498.009888,983.434570 1510.485474,936.960754 
	C1515.689453,917.574829 1520.881958,898.183899 1525.791992,878.722656 
	C1526.703247,875.111023 1528.054565,873.573792 1531.789795,873.902405 
	C1534.933105,874.179077 1538.117310,873.990845 1541.763184,874.073364 
	C1537.473511,892.334656 1532.783325,910.552185 1527.920532,928.723633 
	C1506.953125,1007.075623 1486.012451,1085.434937 1464.888794,1163.745117 
	C1458.413940,1187.748535 1447.000854,1208.897949 1427.080933,1224.620605 
	C1408.559692,1239.239258 1387.074951,1245.196411 1363.396851,1245.861328 
z"/>
<path fill="#CBA918" opacity="1.000000" stroke="none" 
	d="
M737.973450,1152.545410 
	C727.028625,1150.009766 723.965393,1143.731812 727.537598,1130.062622 
	C733.410889,1107.587646 739.562927,1085.185669 745.587952,1062.750366 
	C761.250549,1004.428040 776.915466,946.106445 792.557922,887.778809 
	C794.490540,880.572510 796.382690,873.353027 798.135864,866.101501 
	C801.596558,851.786682 810.230896,842.469482 825.088440,841.409546 
	C837.636658,840.514282 850.341125,841.288391 862.947632,841.908325 
	C871.954712,842.351257 876.643188,848.240662 876.837402,857.967285 
	C875.686035,857.970642 874.614868,857.183411 873.540894,857.179626 
	C860.554810,857.134216 847.522278,856.537781 834.594543,857.428711 
	C821.179871,858.353149 813.500610,866.939941 810.107727,879.586060 
	C803.424377,904.496826 796.785034,929.419373 790.100952,954.329956 
	C773.154114,1017.487915 756.182495,1080.639282 739.271729,1143.806763 
	C738.547974,1146.510498 738.332520,1149.350220 737.973450,1152.545410 
z"/>
<path fill="#CAA818" opacity="1.000000" stroke="none" 
	d="
M655.955322,1218.370605 
	C663.221252,1221.143066 670.227600,1225.309326 677.798706,1227.141235 
	C687.217651,1229.420044 697.081970,1230.524902 706.791321,1230.795410 
	C726.103760,1231.333618 745.444031,1231.135132 764.768677,1230.902710 
	C783.268799,1230.680054 801.506104,1228.786865 818.678711,1220.990112 
	C837.117615,1212.618164 851.265198,1199.607788 861.849304,1182.430664 
	C873.124634,1164.131836 877.635742,1143.486572 883.036194,1123.115112 
	C885.925476,1112.216187 889.114380,1101.396729 892.430115,1090.327148 
	C904.826294,1089.107666 907.089478,1091.593018 903.895508,1103.187744 
	C897.089600,1127.894043 891.266785,1152.953491 882.914368,1177.133667 
	C867.852112,1220.738770 830.972656,1245.899414 784.778870,1246.057373 
	C760.619324,1246.139893 736.457458,1246.243896 712.299927,1246.006592 
	C697.468750,1245.860962 683.133240,1243.202881 670.400452,1234.904297 
	C664.143677,1230.826538 659.162292,1225.551758 655.955322,1218.370605 
z"/>
<path fill="#CAA818" opacity="1.000000" stroke="none" 
	d="
M466.463196,1246.025391 
	C466.385651,1243.710938 466.690491,1241.412109 467.181946,1239.154053 
	C468.881897,1231.342896 468.919586,1231.519287 476.937714,1230.912231 
	C492.939545,1229.700684 508.892517,1228.771729 524.073059,1222.268188 
	C544.914001,1213.339111 560.521423,1199.044067 571.755188,1179.562378 
	C582.793152,1160.420410 586.864929,1138.964355 592.507080,1118.025024 
	C601.821045,1083.459351 611.105896,1048.885864 620.371399,1014.307190 
	C621.055420,1011.754333 621.485474,1009.133545 622.105652,1006.123108 
	C632.268066,1010.388977 635.239990,1016.315796 632.304443,1027.559326 
	C625.744568,1052.684082 619.007446,1077.763794 612.172607,1102.815430 
	C605.514343,1127.219849 599.614441,1151.888184 591.657043,1175.868408 
	C577.045532,1219.901245 539.889221,1245.828735 493.426239,1246.063843 
	C484.594757,1246.108643 475.762848,1246.063354 466.463196,1246.025391 
z"/>
<path fill="#CAA818" opacity="1.000000" stroke="none" 
	d="
M927.968933,1231.345459 
	C944.058472,1230.962524 960.046997,1231.016968 976.034424,1230.906372 
	C979.328186,1230.883545 982.683655,1230.539917 985.893799,1229.821655 
	C990.742065,1228.736816 993.410522,1225.237671 994.653503,1220.568848 
	C1001.437378,1195.085815 1008.191101,1169.594849 1015.004578,1144.119751 
	C1020.961365,1121.847778 1026.931641,1099.578735 1033.101929,1077.365845 
	C1033.480103,1076.004517 1035.645264,1074.229980 1037.015503,1074.197754 
	C1048.001709,1073.938721 1058.996948,1074.098633 1069.988647,1074.023315 
	C1073.079224,1074.002197 1074.085571,1075.463379 1073.998535,1078.331909 
	C1073.887451,1081.992798 1073.965576,1085.659302 1073.895996,1089.806152 
	C1065.017456,1090.150879 1056.201660,1089.860596 1047.396606,1090.055420 
	C1046.211914,1090.081543 1044.439697,1092.377197 1044.020386,1093.916626 
	C1036.233154,1122.501343 1028.614746,1151.131836 1020.950989,1179.750122 
	C1016.043030,1198.077637 1011.148254,1216.408691 1006.190063,1234.722534 
	C1003.873474,1243.279419 1000.142456,1246.055420 991.129639,1246.066284 
	C972.976257,1246.088257 954.822937,1246.080078 936.669556,1246.071167 
	C926.386292,1246.066162 924.563232,1243.635010 927.305786,1233.641357 
	C927.481934,1232.999268 927.679749,1232.363159 927.968933,1231.345459 
z"/>
<path fill="#C9A818" opacity="1.000000" stroke="none" 
	d="
M581.797668,919.962769 
	C591.313721,919.353210 600.768799,919.154114 610.224854,919.074890 
	C618.873413,919.002380 627.523071,919.068542 636.172241,919.056396 
	C643.506348,919.046021 645.902893,917.483887 648.033569,910.297852 
	C650.669373,901.408264 652.919678,892.404602 655.350342,883.453918 
	C658.779480,870.826843 662.337524,858.233459 665.628418,845.570496 
	C669.731018,829.784119 670.284363,813.852783 666.969971,797.410950 
	C675.454224,804.059387 678.502808,813.766663 680.013733,824.124573 
	C681.697449,835.667542 680.315063,847.094482 677.478516,858.268494 
	C671.791138,880.672546 665.773560,902.993408 659.795837,925.322754 
	C658.043335,931.869141 653.947449,934.913513 647.001953,934.938721 
	C628.025879,935.007507 609.049316,934.981506 590.072998,934.962646 
	C580.807739,934.953430 578.761230,932.293640 581.014038,923.332031 
	C581.257446,922.363831 581.496216,921.394348 581.797668,919.962769 
z"/>
<path fill="#C9A718" opacity="1.000000" stroke="none" 
	d="
M875.239258,921.372070 
	C892.176208,920.976501 909.304810,920.997253 926.433350,920.970764 
	C933.204468,920.960266 938.040405,917.753235 939.742554,911.252563 
	C946.575806,885.156250 953.478027,859.070496 959.710327,832.827759 
	C962.540039,820.912537 961.385193,808.774780 957.910522,796.560242 
	C967.626709,804.571838 971.099487,815.792786 972.048828,828.044312 
	C973.346802,844.794861 968.910095,860.723816 964.688721,876.654663 
	C960.386902,892.889221 956.001160,909.101746 951.603394,925.310669 
	C949.509583,933.027527 945.645508,935.984070 937.564026,936.003479 
	C919.586304,936.046692 901.608459,936.035889 883.630615,936.010132 
	C874.443481,935.996948 872.852173,933.888672 874.924805,924.717896 
	C875.144287,923.746582 875.264587,922.752747 875.239258,921.372070 
z"/>
<path fill="#F9D01D" opacity="1.000000" stroke="none" 
	d="
M759.734131,1360.222046 
	C755.184509,1357.444702 754.296814,1353.323486 755.564819,1348.513184 
	C759.554626,1333.377075 763.425903,1318.206909 767.674744,1303.143433 
	C770.246887,1294.024536 775.429077,1290.413086 784.931274,1290.336182 
	C794.428284,1290.259399 803.926331,1290.307983 813.423950,1290.328125 
	C817.959595,1290.337769 822.122131,1291.121338 824.158020,1296.707275 
	C823.825317,1299.755615 823.701843,1302.089844 823.127197,1304.307007 
	C820.555359,1314.229980 817.838806,1324.115234 815.205383,1334.022339 
	C812.729919,1343.335327 812.746948,1343.339844 803.476379,1344.289062 
	C802.770752,1344.263062 802.367249,1344.256836 801.894165,1343.839111 
	C799.295349,1343.085693 796.762878,1342.440552 794.237305,1342.466431 
	C789.407959,1342.515991 784.582520,1342.947266 779.520752,1343.089844 
	C778.860046,1342.638184 778.434021,1342.316650 777.868896,1341.660645 
	C777.016846,1339.314575 776.303833,1337.303101 775.748535,1334.900146 
	C777.268555,1328.669922 778.630798,1322.831055 780.036133,1316.744263 
	C780.077881,1316.328613 780.076538,1316.160889 780.040405,1315.997070 
	C780.005676,1316.000977 780.019653,1316.069458 780.302063,1315.883057 
	C785.655762,1307.500610 789.910339,1305.551758 799.098022,1307.242676 
	C801.688416,1307.719482 804.289795,1308.159180 806.851746,1308.762085 
	C810.188782,1309.547485 811.561462,1308.341919 811.026733,1304.557617 
	C809.686462,1303.439087 808.375610,1302.141357 807.032104,1302.106445 
	C799.387878,1301.908447 791.715393,1301.707153 784.100281,1302.218018 
	C782.087952,1302.353149 779.085449,1304.650879 778.510986,1306.551758 
	C774.772156,1318.926880 771.528320,1331.453247 768.247986,1343.963135 
	C767.638000,1346.289429 767.458069,1348.851318 771.576294,1348.798096 
	C773.009399,1348.808228 774.052124,1348.775879 775.479492,1348.799805 
	C777.888794,1348.794434 779.913452,1348.732910 782.319519,1348.780762 
	C784.933350,1348.890381 787.165771,1348.890381 789.804993,1348.890381 
	C789.644958,1350.669678 789.534363,1351.899536 789.233398,1353.389160 
	C788.558777,1359.325684 784.978760,1360.227173 780.056580,1360.043945 
	C773.294006,1359.791992 766.509338,1360.134399 759.734131,1360.222046 
M795.010315,1331.500610 
	C796.961243,1331.292603 798.911011,1330.927368 800.863464,1330.912354 
	C804.079285,1330.887451 805.793640,1329.559814 806.091309,1325.558472 
	C806.306641,1323.866089 806.521973,1322.173706 806.759766,1320.304565 
	C803.509644,1319.848267 800.901062,1319.437500 798.281006,1319.122559 
	C790.932312,1318.238770 790.400696,1318.615601 788.442017,1325.822266 
	C786.842957,1331.705688 787.865173,1332.693237 795.010315,1331.500610 
z"/>
<path fill="#CBA918" opacity="1.000000" stroke="none" 
	d="
M499.704987,949.682312 
	C497.131195,949.262695 494.582123,948.542297 492.128876,947.578064 
	C485.384308,944.927490 485.340210,944.871033 487.226257,937.767944 
	C493.854492,912.805481 500.395813,887.818787 507.236084,862.914246 
	C510.997894,849.217896 520.993408,842.205200 534.545166,841.327332 
	C546.079956,840.580139 557.788574,841.011414 569.313232,842.077942 
	C578.885803,842.963745 582.194641,847.594116 582.561279,857.629395 
	C579.386841,857.602112 576.434631,857.078552 573.475891,857.038513 
	C564.827759,856.921204 556.176819,856.966064 547.527283,857.003906 
	C533.085693,857.067078 522.568542,864.523499 518.674133,878.479309 
	C512.109924,902.002686 506.047089,925.665894 499.704987,949.682312 
z"/>
<path fill="#FAD11D" opacity="1.000000" stroke="none" 
	d="
M824.860718,1356.108521 
	C823.465576,1353.713257 822.070496,1351.317871 820.810791,1348.161743 
	C824.281433,1334.255981 827.616638,1321.111084 830.951904,1307.966187 
	C832.493774,1302.189697 833.889832,1296.367554 835.679993,1290.669067 
	C836.127686,1289.243652 838.052734,1287.058472 838.939514,1287.218018 
	C841.936890,1287.757690 845.881714,1284.620850 847.633850,1289.855225 
	C846.499512,1294.087646 845.772644,1297.672241 844.822937,1301.196655 
	C841.364929,1314.029907 837.768921,1326.826172 834.389648,1339.679810 
	C833.818054,1341.853760 832.568909,1344.975830 837.376343,1345.093750 
	C838.859314,1345.094971 839.938721,1345.028687 841.018188,1344.962524 
	C845.016174,1345.188965 845.301575,1342.046265 846.021912,1339.374023 
	C850.371826,1323.237915 854.628540,1307.076050 859.126587,1290.981689 
	C859.554749,1289.449585 861.546692,1287.133423 862.611450,1287.237549 
	C865.394897,1287.509888 869.205566,1284.707642 870.716187,1289.992798 
	C865.512634,1309.136108 860.518188,1327.533569 855.591370,1345.948975 
	C853.673462,1353.117676 848.356628,1356.280884 841.684143,1356.809326 
	C836.129700,1357.249268 830.472412,1356.391602 824.860718,1356.108521 
z"/>
<path fill="#F8CF1D" opacity="1.000000" stroke="none" 
	d="
M868.053345,1355.966553 
	C865.427429,1353.515869 863.216492,1350.900024 864.668579,1346.213379 
	C869.342651,1328.743652 873.801025,1311.973999 878.259460,1295.204346 
	C884.385681,1287.520874 898.897644,1283.818604 907.995422,1288.014282 
	C910.034790,1288.954712 911.366089,1291.430542 913.060974,1293.906006 
	C912.837769,1296.386963 912.635559,1298.172607 912.306519,1299.934326 
	C910.435059,1309.953735 910.424622,1309.951782 900.654053,1310.590820 
	C899.614624,1309.275269 898.900574,1308.095459 898.399231,1306.619141 
	C898.906860,1304.883545 899.201721,1303.444580 899.655945,1301.707031 
	C898.165955,1300.314453 896.359497,1298.157715 894.903687,1298.372803 
	C892.653870,1298.705322 889.283386,1300.244141 888.749390,1301.992554 
	C884.838318,1314.799194 881.462830,1327.771851 878.061646,1340.729736 
	C877.504395,1342.852905 877.473877,1345.281250 881.337097,1345.111572 
	C882.826904,1345.114502 883.910034,1345.063843 885.368042,1345.045898 
	C887.205566,1342.701538 889.129333,1340.480835 890.004211,1337.904053 
	C890.920410,1335.205811 891.799683,1333.380615 895.005859,1333.996094 
	C897.928040,1334.556885 902.206848,1332.051392 902.591064,1337.603516 
	C901.825745,1338.535767 901.195862,1339.352905 901.013428,1340.260132 
	C898.472961,1352.891479 893.578491,1357.078857 880.919739,1356.954590 
	C876.628113,1356.912598 872.341980,1356.311890 868.053345,1355.966553 
z"/>
<path fill="#C9A818" opacity="1.000000" stroke="none" 
	d="
M405.402100,1008.274719 
	C421.381195,1013.569397 437.319946,1019.223083 453.233765,1024.946167 
	C478.059052,1033.873901 502.848969,1042.900757 527.709045,1051.730225 
	C530.460205,1052.707397 531.052612,1053.817627 530.048096,1056.413330 
	C529.280579,1058.396484 528.929504,1060.540649 528.084961,1062.845337 
	C490.978973,1049.853394 454.180603,1036.631348 417.384186,1023.403870 
	C410.427338,1020.903076 405.492798,1016.736511 405.402100,1008.274719 
z"/>
<path fill="#FAD11D" opacity="1.000000" stroke="none" 
	d="
M935.979126,1316.024658 
	C938.971680,1316.723877 941.964233,1317.423218 944.884277,1318.913086 
	C942.517517,1328.848022 943.654907,1327.829956 933.986511,1327.892944 
	C932.166138,1327.904785 930.182556,1327.442627 928.570129,1328.022339 
	C926.891541,1328.625732 924.758545,1329.943848 924.239197,1331.440552 
	C922.295654,1337.040894 920.937622,1342.844238 919.348206,1348.568237 
	C917.103149,1356.653687 917.098633,1356.652466 908.906067,1357.074219 
	C908.243103,1357.016113 907.580200,1356.958008 906.528442,1356.469604 
	C907.113342,1351.370605 908.087036,1346.701904 909.235901,1341.696655 
	C911.473572,1333.583740 913.536194,1325.807251 915.847656,1317.794800 
	C917.126526,1313.107666 918.156433,1308.656494 919.186279,1304.205444 
	C920.455017,1299.737427 921.847473,1295.299683 922.945312,1290.790039 
	C923.588196,1288.148926 924.699219,1286.875122 927.659546,1286.928955 
	C936.792175,1287.095337 945.930969,1286.925537 955.063965,1287.082031 
	C956.048889,1287.098877 957.011780,1288.395874 957.899658,1289.911621 
	C955.780457,1298.115601 955.780457,1298.115601 947.930176,1298.116211 
	C947.263489,1298.116211 946.596863,1298.116211 945.930176,1298.116211 
	C932.415100,1298.116211 932.415283,1298.116211 929.414001,1311.305176 
	C929.377197,1311.466797 929.300842,1311.618896 929.255249,1311.779053 
	C928.292114,1315.159790 929.615234,1316.500122 933.383789,1316.002686 
	C934.495911,1316.020874 935.237488,1316.022705 935.979126,1316.024658 
z"/>
<path fill="#CAA818" opacity="1.000000" stroke="none" 
	d="
M446.119049,1152.487549 
	C434.903534,1150.173340 432.499390,1142.136230 435.667633,1129.778687 
	C438.264252,1119.650635 441.257568,1109.624390 443.881348,1099.502930 
	C444.619843,1096.654053 444.675415,1093.628174 445.299408,1090.419678 
	C447.669067,1090.730103 449.759399,1091.668091 451.902557,1091.810425 
	C458.584747,1092.254517 460.595947,1094.502197 458.911072,1101.064941 
	C455.286255,1115.184570 451.354309,1129.225342 447.646484,1143.324097 
	C446.894440,1146.183838 446.576782,1149.157593 446.119049,1152.487549 
z"/>
<path fill="#C9A818" opacity="1.000000" stroke="none" 
	d="
M1234.084473,1219.305542 
	C1235.056641,1219.171997 1236.157593,1219.157593 1236.935791,1219.651733 
	C1248.320801,1226.877441 1260.927979,1229.587402 1274.206055,1230.095337 
	C1278.618286,1230.264160 1283.011108,1230.943848 1287.869629,1231.436279 
	C1286.548462,1236.270996 1285.294189,1240.861450 1283.947266,1245.845947 
	C1275.030151,1244.183594 1265.964111,1242.827759 1257.442993,1239.890259 
	C1247.208984,1236.362305 1238.987549,1229.718384 1234.084473,1219.305542 
z"/>
<path fill="#4E4109" opacity="1.000000" stroke="none" 
	d="
M877.846313,1295.205566 
	C873.801025,1311.973999 869.342651,1328.743652 864.642334,1345.862305 
	C863.343018,1348.695679 862.155029,1351.133545 861.252991,1353.672974 
	C858.698792,1360.863281 853.484314,1364.863403 845.934387,1364.889282 
	C841.470459,1364.904541 836.947693,1364.862793 832.566833,1364.143799 
	C830.630310,1363.825928 828.979919,1361.765015 827.693115,1360.160400 
	C831.844910,1359.912598 835.503052,1360.068237 839.161438,1360.075073 
	C852.992798,1360.100464 856.599915,1357.142212 860.077820,1343.861816 
	C864.366150,1327.486938 868.899841,1311.176392 873.327393,1294.838135 
	C874.695984,1294.961060 876.064636,1295.083984 877.846313,1295.205566 
z"/>
<path fill="#4F4209" opacity="1.000000" stroke="none" 
	d="
M830.665833,1307.775879 
	C827.616638,1321.111084 824.281433,1334.255981 820.768799,1347.780518 
	C815.746765,1353.036011 814.493286,1352.376587 806.438904,1349.984985 
	C802.523499,1348.822510 797.506714,1351.369019 792.607544,1352.653320 
	C792.046753,1353.095825 791.867065,1353.121582 791.311462,1353.126831 
	C790.431641,1353.114136 789.927734,1353.121826 789.423767,1353.129395 
	C789.534363,1351.899536 789.644958,1350.669678 789.804993,1348.890381 
	C787.165771,1348.890381 784.933350,1348.890381 782.357056,1348.320312 
	C782.075684,1347.449707 782.138062,1347.149170 782.644775,1346.856689 
	C789.380615,1345.993286 795.672119,1345.121948 801.963684,1344.250488 
	C802.367249,1344.256836 802.770752,1344.263062 803.570679,1344.669067 
	C807.986877,1349.078613 815.213623,1347.783813 816.639893,1342.598389 
	C820.366943,1329.048462 823.883850,1315.440674 827.484558,1301.855957 
	C828.449646,1303.765747 829.414734,1305.675659 830.665833,1307.775879 
z"/>
<path fill="#A48913" opacity="1.000000" stroke="none" 
	d="
M873.273315,1294.519287 
	C868.899841,1311.176392 864.366150,1327.486938 860.077820,1343.861816 
	C856.599915,1357.142212 852.992798,1360.100464 839.161438,1360.075073 
	C835.503052,1360.068237 831.844910,1359.912598 827.744873,1359.794800 
	C826.523987,1358.755371 825.744995,1357.746460 824.913330,1356.423096 
	C830.472412,1356.391602 836.129700,1357.249268 841.684143,1356.809326 
	C848.356628,1356.280884 853.673462,1353.117676 855.591370,1345.948975 
	C860.518188,1327.533569 865.512634,1309.136108 870.684265,1290.425659 
	C873.616150,1290.365845 873.946533,1291.981201 873.273315,1294.519287 
z"/>
<path fill="#4E4109" opacity="1.000000" stroke="none" 
	d="
M947.271301,1323.839844 
	C949.384949,1323.894165 951.834167,1324.165161 950.816345,1327.015625 
	C949.773865,1329.934814 950.996155,1334.604614 945.983154,1335.037842 
	C942.854187,1335.308228 939.683228,1335.064941 936.532227,1335.116577 
	C932.684387,1335.179443 930.236206,1336.435669 929.363892,1340.865479 
	C928.025818,1347.660522 925.637878,1354.241699 924.042908,1360.995483 
	C922.834045,1366.114258 918.976257,1364.649658 915.709290,1364.948608 
	C912.667236,1365.227051 910.878540,1364.186768 911.448853,1360.407104 
	C920.282959,1360.321167 920.275391,1360.319214 922.420044,1352.189453 
	C923.391357,1348.507202 924.344849,1344.818726 925.401550,1341.160767 
	C928.329468,1331.025269 928.349243,1331.031006 939.116821,1331.024292 
	C946.530212,1331.019653 946.530212,1331.019653 947.271301,1323.839844 
z"/>
<path fill="#4C4009" opacity="1.000000" stroke="none" 
	d="
M909.060791,1342.033203 
	C908.087036,1346.701904 907.113342,1351.370605 906.197876,1356.431396 
	C905.312195,1356.936279 903.810852,1356.713013 903.509460,1357.213013 
	C900.028137,1362.989136 894.584961,1364.834473 888.333252,1364.899048 
	C884.218384,1364.941650 880.038696,1364.928833 876.009705,1364.234741 
	C874.214600,1363.925659 872.718994,1361.877808 871.560669,1360.256104 
	C877.473206,1359.954956 882.916626,1360.175293 888.350830,1360.036377 
	C894.250183,1359.885498 898.897461,1357.376221 901.175781,1351.663208 
	C902.563782,1348.182861 903.565918,1344.548584 905.114868,1341.020264 
	C906.679260,1341.382446 907.869995,1341.707886 909.060791,1342.033203 
z"/>
<path fill="#A28812" opacity="1.000000" stroke="none" 
	d="
M947.191589,1323.519043 
	C946.530212,1331.019653 946.530212,1331.019653 939.116821,1331.024292 
	C928.349243,1331.031006 928.329468,1331.025269 925.401550,1341.160767 
	C924.344849,1344.818726 923.391357,1348.507202 922.420044,1352.189453 
	C920.275391,1360.319214 920.282959,1360.321167 911.404175,1360.004639 
	C910.300903,1359.297974 909.647766,1358.541016 908.950378,1357.429199 
	C917.098633,1356.652466 917.103149,1356.653687 919.348206,1348.568237 
	C920.937622,1342.844238 922.295654,1337.040894 924.239197,1331.440552 
	C924.758545,1329.943848 926.891541,1328.625732 928.570129,1328.022339 
	C930.182556,1327.442627 932.166138,1327.904785 933.986511,1327.892944 
	C943.654907,1327.829956 942.517517,1328.848022 944.921265,1319.334106 
	C946.809326,1319.842651 948.595337,1320.717041 947.191589,1323.519043 
z"/>
<path fill="#C7A517" opacity="1.000000" stroke="none" 
	d="
M365.109680,1219.304199 
	C367.215179,1219.856567 369.263092,1220.817993 371.361542,1221.652466 
	C377.608185,1224.136230 383.874634,1226.570312 391.130951,1229.414917 
	C390.434662,1232.311035 389.578674,1235.871094 388.473206,1239.686279 
	C378.300873,1235.697266 370.128540,1229.455811 365.109680,1219.304199 
z"/>
<path fill="#63530B" opacity="1.000000" stroke="none" 
	d="
M918.851501,1303.998657 
	C918.156433,1308.656494 917.126526,1313.107666 915.348389,1317.746704 
	C912.767639,1317.942993 910.925903,1317.836548 909.104126,1317.981201 
	C903.816101,1318.401367 902.474487,1314.499146 900.979370,1310.726440 
	C910.424622,1309.951782 910.435059,1309.953735 912.306519,1299.934326 
	C912.635559,1298.172607 912.837769,1296.386963 913.250732,1294.205566 
	C915.107483,1297.129883 916.812073,1300.460815 918.851501,1303.998657 
z"/>
<path fill="#4C4009" opacity="1.000000" stroke="none" 
	d="
M841.038940,1344.568115 
	C839.938721,1345.028687 838.859314,1345.094971 837.401733,1344.694824 
	C841.409058,1327.781128 845.794495,1311.333740 850.180054,1294.886353 
	C853.354065,1294.704590 854.095886,1295.744629 853.174255,1299.031982 
	C848.968811,1314.032349 845.069214,1329.118530 841.038940,1344.568115 
z"/>
<path fill="#A48913" opacity="1.000000" stroke="none" 
	d="
M827.386353,1301.511841 
	C823.883850,1315.440674 820.366943,1329.048462 816.639893,1342.598389 
	C815.213623,1347.783813 807.986877,1349.078613 803.872681,1344.688721 
	C812.746948,1343.339844 812.729919,1343.335327 815.205383,1334.022339 
	C817.838806,1324.115234 820.555359,1314.229980 823.127197,1304.307007 
	C823.701843,1302.089844 823.825317,1299.755615 824.287231,1297.031006 
	C825.374695,1298.113647 826.331482,1299.640747 827.386353,1301.511841 
z"/>
<path fill="#A48913" opacity="1.000000" stroke="none" 
	d="
M850.113098,1294.508301 
	C845.794495,1311.333740 841.409058,1327.781128 836.998169,1344.627319 
	C832.568909,1344.975830 833.818054,1341.853760 834.389648,1339.679810 
	C837.768921,1326.826172 841.364929,1314.029907 844.822937,1301.196655 
	C845.772644,1297.672241 846.499512,1294.087646 847.600464,1290.278931 
	C848.596985,1291.394897 849.321594,1292.762451 850.113098,1294.508301 
z"/>
<path fill="#A88C13" opacity="1.000000" stroke="none" 
	d="
M933.013306,1315.986450 
	C929.615234,1316.500122 928.292114,1315.159790 929.255249,1311.779053 
	C929.300842,1311.618896 929.377197,1311.466797 929.414001,1311.305176 
	C932.415283,1298.116211 932.415100,1298.116211 945.930176,1298.116211 
	C946.596863,1298.116211 947.263489,1298.116211 947.930176,1298.116211 
	C955.780457,1298.115601 955.780457,1298.115601 957.918091,1290.348633 
	C959.722412,1290.885864 961.692932,1291.667969 960.113708,1294.945068 
	C960.340820,1300.520752 958.213684,1302.495239 953.245056,1302.067261 
	C948.648743,1301.671509 943.984070,1301.839111 939.365479,1302.073486 
	C937.965515,1302.144653 935.687805,1302.993896 935.410583,1303.950073 
	C934.275513,1307.864746 933.758118,1311.958618 933.013306,1315.986450 
z"/>
<path fill="#4F4209" opacity="1.000000" stroke="none" 
	d="
M933.383789,1316.002686 
	C933.758118,1311.958618 934.275513,1307.864746 935.410583,1303.950073 
	C935.687805,1302.993896 937.965515,1302.144653 939.365479,1302.073486 
	C943.984070,1301.839111 948.648743,1301.671509 953.245056,1302.067261 
	C958.213684,1302.495239 960.340820,1300.520752 960.190430,1295.269165 
	C962.248901,1294.934326 964.832947,1294.982788 963.827271,1297.925903 
	C962.823059,1300.864502 964.005615,1305.612427 959.040222,1305.969360 
	C954.255798,1306.313110 949.387268,1306.440186 944.629761,1305.947632 
	C939.413574,1305.407471 937.319824,1307.647339 936.968323,1312.444580 
	C936.896790,1313.421265 936.564087,1314.379028 936.165405,1315.685059 
	C935.237488,1316.022705 934.495911,1316.020874 933.383789,1316.002686 
z"/>
<path fill="#A28812" opacity="1.000000" stroke="none" 
	d="
M904.741272,1340.983398 
	C903.565918,1344.548584 902.563782,1348.182861 901.175781,1351.663208 
	C898.897461,1357.376221 894.250183,1359.885498 888.350830,1360.036377 
	C882.916626,1360.175293 877.473206,1359.954956 871.575500,1359.890381 
	C870.103638,1358.799561 869.090149,1357.711304 868.065002,1356.294922 
	C872.341980,1356.311890 876.628113,1356.912598 880.919739,1356.954590 
	C893.578491,1357.078857 898.472961,1352.891479 901.013428,1340.260132 
	C901.195862,1339.352905 901.825745,1338.535767 902.929077,1337.504028 
	C903.987488,1338.548706 904.364380,1339.765991 904.741272,1340.983398 
z"/>
<path fill="#4C4009" opacity="1.000000" stroke="none" 
	d="
M791.687317,1353.147217 
	C791.867065,1353.121582 792.046753,1353.095825 792.494995,1353.037354 
	C793.348572,1356.700928 796.497375,1360.166382 793.916382,1364.130127 
	C793.185242,1365.253174 792.064697,1366.879761 791.045715,1366.938599 
	C782.763977,1367.416138 774.462891,1367.726807 766.170044,1367.681396 
	C764.809082,1367.673950 763.459106,1365.674072 762.591309,1364.212402 
	C770.683716,1363.573486 778.289734,1363.105835 785.893494,1363.140259 
	C790.424377,1363.160889 791.638245,1360.914551 791.527832,1357.016479 
	C791.491333,1355.729248 791.629211,1354.437134 791.687317,1353.147217 
z"/>
<path fill="#A28812" opacity="1.000000" stroke="none" 
	d="
M791.311462,1353.126831 
	C791.629211,1354.437134 791.491333,1355.729248 791.527832,1357.016479 
	C791.638245,1360.914551 790.424377,1363.160889 785.893494,1363.140259 
	C778.289734,1363.105835 770.683716,1363.573486 762.627441,1363.833740 
	C761.383423,1362.847046 760.590576,1361.856323 759.765991,1360.543701 
	C766.509338,1360.134399 773.294006,1359.791992 780.056580,1360.043945 
	C784.978760,1360.227173 788.558777,1359.325684 789.233398,1353.389160 
	C789.927734,1353.121826 790.431641,1353.114136 791.311462,1353.126831 
z"/>
<path fill="#020100" opacity="1.000000" stroke="none" 
	d="
M1455.976196,856.044556 
	C1453.045044,868.117737 1450.341919,880.251648 1447.144043,892.253784 
	C1430.831421,953.480896 1414.395386,1014.675171 1397.992554,1075.878296 
	C1392.998779,1094.511719 1388.066772,1113.162476 1382.934692,1131.757935 
	C1378.605225,1147.444702 1370.435425,1154.682495 1354.277344,1155.451904 
	C1340.843384,1156.091431 1327.339355,1155.258179 1313.347656,1154.616577 
	C1313.240479,1151.704468 1313.453491,1149.200073 1314.093018,1146.809814 
	C1330.732300,1084.618286 1347.416626,1022.438904 1364.091797,960.257019 
	C1371.373779,933.102173 1378.651855,905.946167 1385.933594,878.791260 
	C1390.221924,862.799255 1400.207275,855.081909 1416.642822,855.067505 
	C1427.296387,855.058167 1437.950684,855.006653 1448.603149,855.110901 
	C1451.063721,855.134949 1453.518677,855.718506 1455.976196,856.044556 
z"/>
<path fill="#CAA818" opacity="1.000000" stroke="none" 
	d="
M1456.010254,855.618958 
	C1453.518677,855.718506 1451.063721,855.134949 1448.603149,855.110901 
	C1437.950684,855.006653 1427.296387,855.058167 1416.642822,855.067505 
	C1400.207275,855.081909 1390.221924,862.799255 1385.933594,878.791260 
	C1378.651855,905.946167 1371.373779,933.102173 1364.091797,960.257019 
	C1347.416626,1022.438904 1330.732300,1084.618286 1314.093018,1146.809814 
	C1313.453491,1149.200073 1313.240479,1151.704468 1312.926514,1154.571533 
	C1302.359497,1151.553101 1299.146484,1146.242798 1301.986450,1135.414307 
	C1311.742554,1098.215088 1321.630005,1061.050171 1331.570923,1023.899841 
	C1343.183960,980.501648 1354.926392,937.138184 1366.564331,893.746704 
	C1369.182251,883.986023 1371.654175,874.185181 1374.099121,864.379333 
	C1377.648193,850.145386 1386.833862,839.095825 1405.547607,839.873352 
	C1417.182495,840.356750 1428.854004,840.021362 1440.508301,839.952026 
	C1449.575562,839.898071 1456.711426,845.177551 1456.010254,855.618958 
z"/>
<path fill="#020200" opacity="1.000000" stroke="none" 
	d="
M1171.600342,857.597778 
	C1170.744385,862.108276 1170.161743,866.691101 1168.989014,871.117615 
	C1160.080933,904.742249 1151.019409,938.326233 1142.093018,971.946045 
	C1139.472534,981.815857 1135.315552,990.703613 1125.273804,994.700134 
	C1120.461426,996.615417 1114.972656,997.443237 1109.754272,997.605042 
	C1096.941406,998.002563 1084.107666,997.727966 1070.755615,997.364990 
	C1070.264526,996.349792 1070.186157,995.662720 1070.352417,995.041138 
	C1082.349854,950.174683 1094.392822,905.320251 1106.321289,860.435425 
	C1107.078247,857.586975 1108.423462,856.915283 1111.181274,856.932861 
	C1129.504028,857.049561 1147.827881,856.976746 1166.151245,857.020203 
	C1167.968018,857.024475 1169.784058,857.396484 1171.600342,857.597778 
z"/>
<path fill="#CBA918" opacity="1.000000" stroke="none" 
	d="
M1171.715332,857.149414 
	C1169.784058,857.396484 1167.968018,857.024475 1166.151245,857.020203 
	C1147.827881,856.976746 1129.504028,857.049561 1111.181274,856.932861 
	C1108.423462,856.915283 1107.078247,857.586975 1106.321289,860.435425 
	C1094.392822,905.320251 1082.349854,950.174683 1070.352417,995.041138 
	C1070.186157,995.662720 1070.264526,996.349792 1070.312256,997.383911 
	C1065.453247,997.761597 1060.510620,997.761597 1054.778687,997.761597 
	C1055.342773,994.707520 1055.637573,992.144775 1056.297729,989.679871 
	C1068.213013,945.188293 1080.171265,900.708252 1092.124023,856.226685 
	C1093.112793,852.546814 1094.184326,848.888062 1095.109863,845.192566 
	C1095.872559,842.146851 1097.592773,840.958435 1100.829468,840.981995 
	C1118.298218,841.109131 1135.770264,840.915527 1153.236816,841.148315 
	C1156.778320,841.195496 1160.422363,842.258118 1163.807373,843.452637 
	C1169.927612,845.612427 1172.575195,850.213013 1171.715332,857.149414 
z"/>
<path fill="#A98D13" opacity="1.000000" stroke="none" 
	d="
M779.993042,1316.992188 
	C778.630798,1322.831055 777.268555,1328.669922 775.423706,1334.922119 
	C773.689392,1339.808960 772.437683,1344.282227 771.185974,1348.755615 
	C767.458069,1348.851318 767.638000,1346.289429 768.247986,1343.963135 
	C771.528320,1331.453247 774.772156,1318.926880 778.510986,1306.551758 
	C779.085449,1304.650879 782.087952,1302.353149 784.100281,1302.218018 
	C791.715393,1301.707153 799.387878,1301.908447 807.032104,1302.106445 
	C808.375610,1302.141357 809.686462,1303.439087 810.554626,1304.578735 
	C803.670166,1305.005737 797.243408,1305.008179 790.816711,1305.009644 
	C781.795410,1305.011719 780.036316,1306.813354 780.019653,1316.069458 
	C780.019653,1316.069458 780.005676,1316.000977 779.863647,1316.076660 
	C779.643250,1316.253174 779.479309,1316.415405 779.500305,1316.444702 
	C779.642700,1316.642822 779.824158,1316.812988 779.993042,1316.992188 
z"/>
<path fill="#76630E" opacity="1.000000" stroke="none" 
	d="
M794.250427,1331.434204 
	C787.865173,1332.693237 786.842957,1331.705688 788.442017,1325.822266 
	C790.400696,1318.615601 790.932312,1318.238770 798.281006,1319.122559 
	C800.901062,1319.437500 803.509644,1319.848267 806.759766,1320.304565 
	C806.521973,1322.173706 806.306641,1323.866089 805.436646,1325.830688 
	C796.461853,1325.462646 795.211182,1326.095825 794.250427,1331.434204 
z"/>
<path fill="#69570C" opacity="1.000000" stroke="none" 
	d="
M780.302063,1315.883057 
	C780.036316,1306.813354 781.795410,1305.011719 790.816711,1305.009644 
	C797.243408,1305.008179 803.670166,1305.005737 810.568970,1304.982666 
	C811.561462,1308.341919 810.188782,1309.547485 806.851746,1308.762085 
	C804.289795,1308.159180 801.688416,1307.719482 799.098022,1307.242676 
	C789.910339,1305.551758 785.655762,1307.500610 780.302063,1315.883057 
z"/>
<path fill="#A48913" opacity="1.000000" stroke="none" 
	d="
M801.894165,1343.839111 
	C795.672119,1345.121948 789.380615,1345.993286 782.406128,1346.647339 
	C781.067322,1345.360107 780.411438,1344.290161 779.755493,1343.220215 
	C784.582520,1342.947266 789.407959,1342.515991 794.237305,1342.466431 
	C796.762878,1342.440552 799.295349,1343.085693 801.894165,1343.839111 
z"/>
<path fill="#131002" opacity="1.000000" stroke="none" 
	d="
M794.630371,1331.467407 
	C795.211182,1326.095825 796.461853,1325.462646 805.197021,1326.155762 
	C805.793640,1329.559814 804.079285,1330.887451 800.863464,1330.912354 
	C798.911011,1330.927368 796.961243,1331.292603 794.630371,1331.467407 
z"/>
<path fill="#4F4209" opacity="1.000000" stroke="none" 
	d="
M771.576294,1348.798096 
	C772.437683,1344.282227 773.689392,1339.808960 775.265991,1335.313599 
	C776.303833,1337.303101 777.016846,1339.314575 777.516663,1341.733032 
	C776.567322,1344.341187 775.831055,1346.542236 775.094849,1348.743408 
	C774.052124,1348.775879 773.009399,1348.808228 771.576294,1348.798096 
z"/>
<path fill="#050501" opacity="1.000000" stroke="none" 
	d="
M775.479431,1348.799805 
	C775.831055,1346.542236 776.567322,1344.341187 777.655762,1342.067627 
	C778.434021,1342.316650 778.860046,1342.638184 779.520813,1343.089844 
	C780.411438,1344.290161 781.067322,1345.360107 781.961853,1346.639404 
	C782.138062,1347.149170 782.075684,1347.449707 781.975708,1348.210693 
	C779.913452,1348.732910 777.888794,1348.794434 775.479431,1348.799805 
z"/>
<path fill="#69570C" opacity="1.000000" stroke="none" 
	d="
M780.036133,1316.744263 
	C779.824158,1316.812988 779.642700,1316.642822 779.500305,1316.444702 
	C779.479309,1316.415405 779.643250,1316.253174 779.898376,1316.072754 
	C780.076538,1316.160889 780.077881,1316.328613 780.036133,1316.744263 
z"/>
<path fill="#050501" opacity="1.000000" stroke="none" 
	d="
M905.114868,1341.020264 
	C904.364380,1339.765991 903.987488,1338.548706 903.272583,1337.430908 
	C902.206848,1332.051392 897.928040,1334.556885 895.005859,1333.996094 
	C891.799683,1333.380615 890.920410,1335.205811 890.004211,1337.904053 
	C889.129333,1340.480835 887.205566,1342.701538 885.363770,1344.634521 
	C887.938965,1332.798340 890.784424,1321.375366 893.992737,1310.055298 
	C894.371216,1308.719727 896.740295,1307.948486 898.186523,1306.915649 
	C898.900574,1308.095459 899.614624,1309.275269 900.654053,1310.590820 
	C902.474487,1314.499146 903.816101,1318.401367 909.104126,1317.981201 
	C910.925903,1317.836548 912.767639,1317.942993 915.099487,1317.982788 
	C913.536194,1325.807251 911.473572,1333.583740 909.235840,1341.696655 
	C907.869995,1341.707886 906.679260,1341.382446 905.114868,1341.020264 
z"/>
<path fill="#A88C13" opacity="1.000000" stroke="none" 
	d="
M880.930481,1345.058105 
	C877.473877,1345.281250 877.504395,1342.852905 878.061646,1340.729736 
	C881.462830,1327.771851 884.838318,1314.799194 888.749390,1301.992554 
	C889.283386,1300.244141 892.653870,1298.705322 894.903687,1298.372803 
	C896.359497,1298.157715 898.165955,1300.314453 899.196899,1301.701660 
	C894.160156,1301.407349 891.128235,1302.838745 890.296875,1307.592651 
	C890.069763,1308.891357 889.672913,1310.160645 889.351746,1311.442871 
	C886.544861,1322.647949 883.737671,1333.853027 880.930481,1345.058105 
z"/>
<path fill="#4F4209" opacity="1.000000" stroke="none" 
	d="
M881.337097,1345.111572 
	C883.737671,1333.853027 886.544861,1322.647949 889.351746,1311.442871 
	C889.672913,1310.160645 890.069763,1308.891357 890.296875,1307.592651 
	C891.128235,1302.838745 894.160156,1301.407349 899.037476,1302.000244 
	C899.201721,1303.444580 898.906860,1304.883545 898.399292,1306.619141 
	C896.740295,1307.948486 894.371216,1308.719727 893.992737,1310.055298 
	C890.784424,1321.375366 887.938965,1332.798340 884.988892,1344.601807 
	C883.910034,1345.063843 882.826904,1345.114502 881.337097,1345.111572 
z"/>
</svg>